<mxfile host="Electron" agent="Mozilla/5.0 (Windows NT 10.0; Win64; x64) AppleWebKit/537.36 (KHTML, like Gecko) draw.io/28.0.6 Chrome/138.0.7204.100 Electron/37.2.3 Safari/537.36" version="28.0.6">
  <diagram name="Page-1" id="FLkrV2ohxfriEUPbqegY">
    <mxGraphModel dx="1889" dy="789" grid="1" gridSize="10" guides="1" tooltips="1" connect="1" arrows="1" fold="1" page="1" pageScale="1" pageWidth="827" pageHeight="1169" math="0" shadow="0">
      <root>
        <mxCell id="0" />
        <mxCell id="1" parent="0" />
        <mxCell id="_mjMcYT_WKcth5b9170J-1" value="" style="rounded=1;whiteSpace=wrap;html=1;fillColor=none;dashed=1;" parent="1" vertex="1">
          <mxGeometry x="-140" y="120" width="184.5" height="450" as="geometry" />
        </mxCell>
        <mxCell id="_mjMcYT_WKcth5b9170J-33" value="" style="rounded=1;whiteSpace=wrap;html=1;fillColor=none;dashed=1;" parent="1" vertex="1">
          <mxGeometry x="140" y="120" width="260" height="450" as="geometry" />
        </mxCell>
        <mxCell id="_mjMcYT_WKcth5b9170J-25" value="" style="rounded=1;whiteSpace=wrap;html=1;dashed=1;fillColor=none;strokeColor=#666666;gradientColor=#b3b3b3;" parent="1" vertex="1">
          <mxGeometry x="455" y="120" width="260" height="450" as="geometry" />
        </mxCell>
        <mxCell id="_mjMcYT_WKcth5b9170J-47" value="" style="rounded=1;whiteSpace=wrap;html=1;dashed=1;fillColor=none;strokeColor=#56517e;" parent="1" vertex="1">
          <mxGeometry x="800" y="120" width="260" height="450" as="geometry" />
        </mxCell>
        <mxCell id="_mjMcYT_WKcth5b9170J-2" value="&lt;font style=&quot;font-size: 18px;&quot;&gt;bronze layer&lt;/font&gt;" style="rounded=0;whiteSpace=wrap;html=1;fillColor=#fff2cc;strokeColor=#d6b656;" parent="1" vertex="1">
          <mxGeometry x="150" y="80" width="240" height="30" as="geometry" />
        </mxCell>
        <mxCell id="_mjMcYT_WKcth5b9170J-70" value="&lt;font style=&quot;font-size: 18px;&quot;&gt;bronze layer&lt;/font&gt;" style="rounded=1;whiteSpace=wrap;html=1;" parent="1" vertex="1">
          <mxGeometry x="-140" y="80" width="180" height="30" as="geometry" />
        </mxCell>
        <mxCell id="_mjMcYT_WKcth5b9170J-17" value="CRM_SALES_DETAILS" style="rounded=1;whiteSpace=wrap;html=1;fillColor=#fff2cc;strokeColor=#d6b656;" parent="1" vertex="1">
          <mxGeometry x="170" y="170" width="200" height="30" as="geometry" />
        </mxCell>
        <mxCell id="_mjMcYT_WKcth5b9170J-64" value="CRM_SALES_DETAILS" style="rounded=1;whiteSpace=wrap;html=1;fillColor=#f5f5f5;strokeColor=#666666;gradientColor=#b3b3b3;" parent="1" vertex="1">
          <mxGeometry x="490" y="170" width="200" height="30" as="geometry" />
        </mxCell>
        <mxCell id="_mjMcYT_WKcth5b9170J-48" value="&lt;span style=&quot;font-size: 18px;&quot;&gt;FACT_SALES&lt;/span&gt;" style="rounded=1;whiteSpace=wrap;html=1;fillColor=#ffff88;strokeColor=#36393d;" parent="1" vertex="1">
          <mxGeometry x="827" y="170" width="200" height="30" as="geometry" />
        </mxCell>
        <mxCell id="_mjMcYT_WKcth5b9170J-18" value="&lt;span style=&quot;font-size: 18px;&quot;&gt;CRM_CUST_INFO&lt;/span&gt;" style="rounded=1;whiteSpace=wrap;html=1;fillColor=#fff2cc;strokeColor=#d6b656;" parent="1" vertex="1">
          <mxGeometry x="170" y="230" width="200" height="30" as="geometry" />
        </mxCell>
        <mxCell id="_mjMcYT_WKcth5b9170J-65" value="&lt;span style=&quot;font-size: 18px;&quot;&gt;CRM_CUST_INFO&lt;/span&gt;" style="rounded=1;whiteSpace=wrap;html=1;fillColor=#f5f5f5;strokeColor=#666666;gradientColor=#b3b3b3;" parent="1" vertex="1">
          <mxGeometry x="490" y="230" width="200" height="30" as="geometry" />
        </mxCell>
        <mxCell id="_mjMcYT_WKcth5b9170J-49" value="&lt;font style=&quot;font-size: 18px;&quot;&gt;DIM_CUSTOMERS&lt;/font&gt;" style="rounded=1;whiteSpace=wrap;html=1;fillColor=#ffff88;strokeColor=#36393d;" parent="1" vertex="1">
          <mxGeometry x="830" y="330" width="200" height="30" as="geometry" />
        </mxCell>
        <mxCell id="_mjMcYT_WKcth5b9170J-19" value="&lt;font style=&quot;font-size: 18px;&quot;&gt;CRM_PRD_INFO&lt;/font&gt;" style="rounded=1;whiteSpace=wrap;html=1;fillColor=#fff2cc;strokeColor=#d6b656;" parent="1" vertex="1">
          <mxGeometry x="170" y="290" width="200" height="30" as="geometry" />
        </mxCell>
        <mxCell id="_mjMcYT_WKcth5b9170J-66" value="&lt;font style=&quot;font-size: 18px;&quot;&gt;CRM_PRD_INFO&lt;/font&gt;" style="rounded=1;whiteSpace=wrap;html=1;fillColor=#f5f5f5;strokeColor=#666666;gradientColor=#b3b3b3;" parent="1" vertex="1">
          <mxGeometry x="490" y="290" width="200" height="30" as="geometry" />
        </mxCell>
        <mxCell id="_mjMcYT_WKcth5b9170J-50" value="&lt;font style=&quot;font-size: 18px;&quot;&gt;DIM_PRODUCTS&lt;/font&gt;" style="rounded=1;whiteSpace=wrap;html=1;fillColor=#ffff88;strokeColor=#36393d;" parent="1" vertex="1">
          <mxGeometry x="830" y="410" width="200" height="30" as="geometry" />
        </mxCell>
        <mxCell id="_mjMcYT_WKcth5b9170J-20" value="&lt;span style=&quot;font-size: 18px;&quot;&gt;ERP_CUST_AZ12&lt;/span&gt;" style="rounded=1;whiteSpace=wrap;html=1;fillColor=#fff2cc;strokeColor=#d6b656;" parent="1" vertex="1">
          <mxGeometry x="170" y="370" width="200" height="30" as="geometry" />
        </mxCell>
        <mxCell id="_mjMcYT_WKcth5b9170J-67" value="&lt;span style=&quot;font-size: 18px;&quot;&gt;ERP_CUST_AZ12&lt;/span&gt;" style="rounded=1;whiteSpace=wrap;html=1;fillColor=#f5f5f5;strokeColor=#666666;gradientColor=#b3b3b3;" parent="1" vertex="1">
          <mxGeometry x="490" y="370" width="200" height="30" as="geometry" />
        </mxCell>
        <mxCell id="_mjMcYT_WKcth5b9170J-21" value="&lt;font style=&quot;font-size: 18px;&quot;&gt;ERP_LOC_A101&lt;/font&gt;" style="rounded=1;whiteSpace=wrap;html=1;fillColor=#fff2cc;strokeColor=#d6b656;" parent="1" vertex="1">
          <mxGeometry x="170" y="430" width="200" height="30" as="geometry" />
        </mxCell>
        <mxCell id="_mjMcYT_WKcth5b9170J-68" value="&lt;font style=&quot;font-size: 18px;&quot;&gt;ERP_LOC_A101&lt;/font&gt;" style="rounded=1;whiteSpace=wrap;html=1;fillColor=#f5f5f5;strokeColor=#666666;gradientColor=#b3b3b3;" parent="1" vertex="1">
          <mxGeometry x="490" y="430" width="200" height="30" as="geometry" />
        </mxCell>
        <mxCell id="_mjMcYT_WKcth5b9170J-22" value="&lt;font style=&quot;font-size: 18px;&quot;&gt;ERP_PX_CAT_G1V2&lt;/font&gt;" style="rounded=1;whiteSpace=wrap;html=1;fillColor=#fff2cc;strokeColor=#d6b656;" parent="1" vertex="1">
          <mxGeometry x="170" y="491" width="200" height="30" as="geometry" />
        </mxCell>
        <mxCell id="_mjMcYT_WKcth5b9170J-69" value="&lt;font style=&quot;font-size: 18px;&quot;&gt;ERP_PX_CAT_G1V2&lt;/font&gt;" style="rounded=1;whiteSpace=wrap;html=1;fillColor=#f5f5f5;strokeColor=#666666;gradientColor=#b3b3b3;" parent="1" vertex="1">
          <mxGeometry x="490" y="491" width="200" height="30" as="geometry" />
        </mxCell>
        <mxCell id="_mjMcYT_WKcth5b9170J-3" value="&lt;font style=&quot;font-size: 18px;&quot;&gt;silver layer&lt;/font&gt;" style="rounded=0;whiteSpace=wrap;html=1;fillColor=#f5f5f5;strokeColor=#666666;gradientColor=#b3b3b3;" parent="1" vertex="1">
          <mxGeometry x="470" y="80" width="230" height="30" as="geometry" />
        </mxCell>
        <mxCell id="_mjMcYT_WKcth5b9170J-54" value="&lt;font style=&quot;font-size: 18px;&quot;&gt;gold layer&lt;/font&gt;" style="rounded=0;whiteSpace=wrap;html=1;fillColor=#ffff88;strokeColor=#36393d;" parent="1" vertex="1">
          <mxGeometry x="815" y="80" width="230" height="30" as="geometry" />
        </mxCell>
        <mxCell id="_mjMcYT_WKcth5b9170J-11" value="" style="image;aspect=fixed;html=1;points=[];align=center;fontSize=12;image=img/lib/azure2/general/Folder_Blank.svg;" parent="1" vertex="1">
          <mxGeometry x="-84.5" y="217" width="69" height="56.00000000000001" as="geometry" />
        </mxCell>
        <mxCell id="_mjMcYT_WKcth5b9170J-12" value="" style="image;aspect=fixed;html=1;points=[];align=center;fontSize=12;image=img/lib/azure2/general/Folder_Blank.svg;" parent="1" vertex="1">
          <mxGeometry x="-80" y="410" width="69" height="56.00000000000001" as="geometry" />
        </mxCell>
        <mxCell id="_mjMcYT_WKcth5b9170J-13" value="&lt;font style=&quot;font-size: 20px;&quot;&gt;&lt;b&gt;crm&lt;/b&gt;&lt;/font&gt;" style="text;html=1;align=center;verticalAlign=middle;resizable=0;points=[];autosize=1;strokeColor=none;fillColor=none;" parent="1" vertex="1">
          <mxGeometry x="-84.5" y="270" width="60" height="40" as="geometry" />
        </mxCell>
        <mxCell id="_mjMcYT_WKcth5b9170J-14" value="&lt;font style=&quot;font-size: 20px;&quot;&gt;&lt;b style=&quot;&quot;&gt;erp&lt;/b&gt;&lt;/font&gt;" style="text;html=1;align=center;verticalAlign=middle;resizable=0;points=[];autosize=1;strokeColor=none;fillColor=none;" parent="1" vertex="1">
          <mxGeometry x="-75" y="461" width="50" height="40" as="geometry" />
        </mxCell>
        <mxCell id="_mjMcYT_WKcth5b9170J-35" value="" style="endArrow=classic;html=1;rounded=0;entryX=0;entryY=0.75;entryDx=0;entryDy=0;exitX=0.935;exitY=0.589;exitDx=0;exitDy=0;exitPerimeter=0;" parent="1" source="_mjMcYT_WKcth5b9170J-11" target="_mjMcYT_WKcth5b9170J-18" edge="1">
          <mxGeometry width="50" height="50" relative="1" as="geometry">
            <mxPoint x="60" y="290" as="sourcePoint" />
            <mxPoint x="110" y="240" as="targetPoint" />
            <Array as="points" />
          </mxGeometry>
        </mxCell>
        <mxCell id="_mjMcYT_WKcth5b9170J-38" value="" style="endArrow=classic;html=1;rounded=0;entryX=0;entryY=0.75;entryDx=0;entryDy=0;exitX=0.747;exitY=0.687;exitDx=0;exitDy=0;exitPerimeter=0;" parent="1" source="_mjMcYT_WKcth5b9170J-1" edge="1">
          <mxGeometry width="50" height="50" relative="1" as="geometry">
            <mxPoint x="-10" y="440" as="sourcePoint" />
            <mxPoint x="150" y="446.5" as="targetPoint" />
            <Array as="points" />
          </mxGeometry>
        </mxCell>
        <mxCell id="_mjMcYT_WKcth5b9170J-37" value="" style="endArrow=classic;html=1;rounded=0;entryX=-0.002;entryY=0.617;entryDx=0;entryDy=0;entryPerimeter=0;" parent="1" target="_mjMcYT_WKcth5b9170J-17" edge="1">
          <mxGeometry width="50" height="50" relative="1" as="geometry">
            <mxPoint x="60" y="250" as="sourcePoint" />
            <mxPoint x="150" y="186.5" as="targetPoint" />
            <Array as="points">
              <mxPoint x="60" y="187" />
            </Array>
          </mxGeometry>
        </mxCell>
        <mxCell id="_mjMcYT_WKcth5b9170J-40" value="" style="endArrow=classic;html=1;rounded=0;entryX=0;entryY=0.75;entryDx=0;entryDy=0;" parent="1" edge="1">
          <mxGeometry width="50" height="50" relative="1" as="geometry">
            <mxPoint x="60" y="446.75" as="sourcePoint" />
            <mxPoint x="150" y="383.25" as="targetPoint" />
            <Array as="points">
              <mxPoint x="60" y="383.75" />
            </Array>
          </mxGeometry>
        </mxCell>
        <mxCell id="_mjMcYT_WKcth5b9170J-36" value="" style="endArrow=classic;html=1;rounded=0;entryX=0;entryY=0.5;entryDx=0;entryDy=0;" parent="1" target="_mjMcYT_WKcth5b9170J-19" edge="1">
          <mxGeometry width="50" height="50" relative="1" as="geometry">
            <mxPoint x="60" y="250" as="sourcePoint" />
            <mxPoint x="150" y="304.68" as="targetPoint" />
            <Array as="points">
              <mxPoint x="60" y="305" />
            </Array>
          </mxGeometry>
        </mxCell>
        <mxCell id="_mjMcYT_WKcth5b9170J-39" value="" style="endArrow=classic;html=1;rounded=0;entryX=0;entryY=0.265;entryDx=0;entryDy=0;entryPerimeter=0;" parent="1" edge="1">
          <mxGeometry width="50" height="50" relative="1" as="geometry">
            <mxPoint x="60" y="448.5" as="sourcePoint" />
            <mxPoint x="150" y="503.18" as="targetPoint" />
            <Array as="points">
              <mxPoint x="60" y="503.5" />
            </Array>
          </mxGeometry>
        </mxCell>
        <mxCell id="_mjMcYT_WKcth5b9170J-41" value="" style="endArrow=classic;html=1;rounded=0;entryX=0;entryY=0.5;entryDx=0;entryDy=0;exitX=1;exitY=0.5;exitDx=0;exitDy=0;" parent="1" source="_mjMcYT_WKcth5b9170J-17" edge="1">
          <mxGeometry width="50" height="50" relative="1" as="geometry">
            <mxPoint x="400" y="230" as="sourcePoint" />
            <mxPoint x="490" y="185" as="targetPoint" />
          </mxGeometry>
        </mxCell>
        <mxCell id="_mjMcYT_WKcth5b9170J-57" value="" style="endArrow=classic;html=1;rounded=0;entryX=0;entryY=0.5;entryDx=0;entryDy=0;exitX=1;exitY=0.5;exitDx=0;exitDy=0;" parent="1" target="_mjMcYT_WKcth5b9170J-48" edge="1">
          <mxGeometry width="50" height="50" relative="1" as="geometry">
            <mxPoint x="690" y="185" as="sourcePoint" />
            <mxPoint x="827" y="180" as="targetPoint" />
          </mxGeometry>
        </mxCell>
        <mxCell id="_mjMcYT_WKcth5b9170J-58" value="" style="endArrow=classic;html=1;rounded=0;entryX=0;entryY=0.5;entryDx=0;entryDy=0;exitX=1;exitY=0.5;exitDx=0;exitDy=0;" parent="1" target="_mjMcYT_WKcth5b9170J-49" edge="1">
          <mxGeometry width="50" height="50" relative="1" as="geometry">
            <mxPoint x="690" y="244.66" as="sourcePoint" />
            <mxPoint x="827" y="244.66" as="targetPoint" />
          </mxGeometry>
        </mxCell>
        <mxCell id="_mjMcYT_WKcth5b9170J-59" value="" style="endArrow=classic;html=1;rounded=0;entryX=0;entryY=0.5;entryDx=0;entryDy=0;exitX=1;exitY=0.5;exitDx=0;exitDy=0;" parent="1" edge="1">
          <mxGeometry width="50" height="50" relative="1" as="geometry">
            <mxPoint x="690" y="305" as="sourcePoint" />
            <mxPoint x="830" y="430" as="targetPoint" />
          </mxGeometry>
        </mxCell>
        <mxCell id="_mjMcYT_WKcth5b9170J-60" value="" style="endArrow=classic;html=1;rounded=0;entryX=0;entryY=0.5;entryDx=0;entryDy=0;exitX=1;exitY=0.5;exitDx=0;exitDy=0;" parent="1" target="_mjMcYT_WKcth5b9170J-49" edge="1">
          <mxGeometry width="50" height="50" relative="1" as="geometry">
            <mxPoint x="690" y="385" as="sourcePoint" />
            <mxPoint x="827" y="466" as="targetPoint" />
          </mxGeometry>
        </mxCell>
        <mxCell id="_mjMcYT_WKcth5b9170J-61" value="" style="endArrow=classic;html=1;rounded=0;entryX=0;entryY=0.5;entryDx=0;entryDy=0;exitX=1;exitY=0.5;exitDx=0;exitDy=0;" parent="1" target="_mjMcYT_WKcth5b9170J-49" edge="1">
          <mxGeometry width="50" height="50" relative="1" as="geometry">
            <mxPoint x="690" y="446" as="sourcePoint" />
            <mxPoint x="840" y="355" as="targetPoint" />
          </mxGeometry>
        </mxCell>
        <mxCell id="_mjMcYT_WKcth5b9170J-62" value="" style="endArrow=classic;html=1;rounded=0;entryX=0;entryY=0.5;entryDx=0;entryDy=0;exitX=1;exitY=0.5;exitDx=0;exitDy=0;" parent="1" edge="1">
          <mxGeometry width="50" height="50" relative="1" as="geometry">
            <mxPoint x="690" y="506" as="sourcePoint" />
            <mxPoint x="830" y="430" as="targetPoint" />
          </mxGeometry>
        </mxCell>
        <mxCell id="_mjMcYT_WKcth5b9170J-42" value="" style="endArrow=classic;html=1;rounded=0;entryX=0;entryY=0.5;entryDx=0;entryDy=0;exitX=1;exitY=0.5;exitDx=0;exitDy=0;" parent="1" edge="1">
          <mxGeometry width="50" height="50" relative="1" as="geometry">
            <mxPoint x="370" y="244.79" as="sourcePoint" />
            <mxPoint x="490" y="245" as="targetPoint" />
          </mxGeometry>
        </mxCell>
        <mxCell id="_mjMcYT_WKcth5b9170J-43" value="" style="endArrow=classic;html=1;rounded=0;entryX=0;entryY=0.5;entryDx=0;entryDy=0;exitX=1;exitY=0.5;exitDx=0;exitDy=0;" parent="1" edge="1">
          <mxGeometry width="50" height="50" relative="1" as="geometry">
            <mxPoint x="370" y="304.78999999999996" as="sourcePoint" />
            <mxPoint x="490" y="305" as="targetPoint" />
            <Array as="points" />
          </mxGeometry>
        </mxCell>
        <mxCell id="_mjMcYT_WKcth5b9170J-44" value="" style="endArrow=classic;html=1;rounded=0;entryX=0;entryY=0.5;entryDx=0;entryDy=0;exitX=1;exitY=0.5;exitDx=0;exitDy=0;" parent="1" edge="1">
          <mxGeometry width="50" height="50" relative="1" as="geometry">
            <mxPoint x="370" y="384.78999999999996" as="sourcePoint" />
            <mxPoint x="490" y="385" as="targetPoint" />
            <Array as="points" />
          </mxGeometry>
        </mxCell>
        <mxCell id="_mjMcYT_WKcth5b9170J-45" value="" style="endArrow=classic;html=1;rounded=0;entryX=0;entryY=0.5;entryDx=0;entryDy=0;exitX=1;exitY=0.5;exitDx=0;exitDy=0;" parent="1" edge="1">
          <mxGeometry width="50" height="50" relative="1" as="geometry">
            <mxPoint x="370" y="444.78999999999996" as="sourcePoint" />
            <mxPoint x="490" y="446" as="targetPoint" />
            <Array as="points" />
          </mxGeometry>
        </mxCell>
        <mxCell id="_mjMcYT_WKcth5b9170J-46" value="" style="endArrow=classic;html=1;rounded=0;entryX=0;entryY=0.5;entryDx=0;entryDy=0;exitX=1;exitY=0.5;exitDx=0;exitDy=0;" parent="1" edge="1">
          <mxGeometry width="50" height="50" relative="1" as="geometry">
            <mxPoint x="370" y="505.78999999999996" as="sourcePoint" />
            <mxPoint x="490" y="506" as="targetPoint" />
            <Array as="points" />
          </mxGeometry>
        </mxCell>
        <mxCell id="YAzBYiQ4UKdIRfC4vuj8-1" value="&lt;font style=&quot;font-size: 23px;&quot;&gt;&lt;b&gt;data flow diagram&lt;/b&gt;&lt;/font&gt;" style="text;html=1;align=center;verticalAlign=middle;resizable=0;points=[];autosize=1;strokeColor=none;fillColor=none;" vertex="1" parent="1">
          <mxGeometry x="-520" y="13" width="220" height="40" as="geometry" />
        </mxCell>
      </root>
    </mxGraphModel>
  </diagram>
</mxfile>
